<?xml version="1.0" standalone="no"?>
<!DOCTYPE svg PUBLIC "-//W3C//DTD SVG 20010904//EN"
 "http://www.w3.org/TR/2001/REC-SVG-20010904/DTD/svg10.dtd">
<svg version="1.0" xmlns="http://www.w3.org/2000/svg"
 width="210.000000pt" height="162.000000pt" viewBox="0 0 210.000000 162.000000"
 preserveAspectRatio="xMidYMid meet">
<metadata>
Created by potrace 1.10, written by Peter Selinger 2001-2011
</metadata>
<g transform="translate(0.000000,162.000000) scale(0.100000,-0.100000)"
fill="#ffffff" stroke="none">
<path d="M970 1433 c0 -16 13 -53 29 -83 16 -30 34 -75 41 -100 6 -25 23 -64
36 -87 13 -23 24 -55 24 -72 0 -49 -23 -53 -120 -21 -88 29 -269 75 -550 141
-91 22 -184 46 -206 55 -95 36 -110 3 -45 -101 21 -34 62 -108 91 -165 28 -57
61 -116 72 -131 33 -44 21 -97 -51 -219 -33 -58 -61 -109 -61 -113 0 -5 -21
-40 -46 -79 -25 -39 -46 -83 -47 -97 -2 -24 1 -26 33 -24 19 0 62 8 95 17 33
9 125 32 205 52 80 20 194 50 255 65 60 16 123 29 138 29 15 0 66 16 113 35
97 40 110 42 124 16 11 -22 8 -37 -25 -101 -13 -25 -28 -65 -35 -90 -6 -25
-25 -68 -41 -96 -31 -55 -36 -83 -18 -101 15 -15 55 0 89 32 14 13 111 79 215
147 235 154 612 402 643 423 22 16 29 49 14 71 -4 6 -22 19 -40 28 -27 14
-202 128 -697 455 -38 25 -96 67 -129 94 -69 55 -106 62 -106 20z"/>
</g>
</svg>
