<?xml version="1.0" standalone="no"?>
<!DOCTYPE svg PUBLIC "-//W3C//DTD SVG 20010904//EN"
 "http://www.w3.org/TR/2001/REC-SVG-20010904/DTD/svg10.dtd">
<svg version="1.0" xmlns="http://www.w3.org/2000/svg"
 width="198.000000pt" height="210.000000pt" viewBox="0 0 198.000000 210.000000"
 preserveAspectRatio="xMidYMid meet">
<metadata>
Created by potrace 1.10, written by Peter Selinger 2001-2011
</metadata>
<g transform="translate(0.000000,210.000000) scale(0.100000,-0.100000)"
fill="#fff" stroke="none">
<path d="M1044 1945 c-3 -7 7 -45 22 -82 37 -94 41 -139 15 -207 -25 -68 -61
-141 -107 -216 -30 -52 -84 -222 -84 -268 0 -12 5 -24 11 -27 25 -16 67 12
153 99 93 95 129 116 198 116 41 0 61 26 54 69 -4 20 -10 82 -14 138 -7 94
-10 105 -39 141 -18 22 -54 78 -82 125 -63 106 -113 150 -127 112z"/>
<path d="M1574 1876 c-3 -8 1 -44 10 -79 21 -82 20 -105 -4 -170 -25 -66 -127
-189 -206 -248 -30 -24 -64 -59 -74 -80 -11 -20 -33 -57 -49 -81 -37 -55 -71
-159 -71 -217 1 -60 27 -113 88 -180 43 -46 54 -54 96 -58 36 -4 46 -9 44 -22
-5 -25 -60 -25 -128 0 -65 24 -134 89 -147 139 -9 39 -32 59 -118 102 -44 22
-97 56 -118 74 -42 38 -55 41 -97 19 -45 -23 -61 -66 -72 -189 -22 -266 -24
-283 -47 -313 -12 -15 -38 -49 -57 -75 -35 -46 -38 -48 -87 -48 -82 0 -201
-44 -253 -94 -38 -37 -44 -48 -44 -84 0 -44 18 -69 53 -76 195 -40 497 -32
596 16 85 41 255 197 315 290 23 35 58 36 98 3 16 -14 33 -25 37 -25 5 0 37
24 73 53 35 29 87 69 115 90 29 21 54 48 57 62 9 37 -25 107 -67 139 -24 18
-38 40 -47 72 -15 52 -7 64 44 64 67 0 195 105 222 183 7 18 10 58 7 93 -4 44
-1 68 10 91 46 88 40 163 -18 233 -32 39 -34 43 -33 123 1 87 -18 142 -58 178
-30 26 -63 33 -70 15z"/>
</g>
</svg>
