<?xml version="1.0" standalone="no"?>
<!DOCTYPE svg PUBLIC "-//W3C//DTD SVG 20010904//EN"
 "http://www.w3.org/TR/2001/REC-SVG-20010904/DTD/svg10.dtd">
<svg version="1.0" xmlns="http://www.w3.org/2000/svg"
 width="210.000000pt" height="198.000000pt" viewBox="0 0 210.000000 198.000000"
 preserveAspectRatio="xMidYMid meet">
<metadata>
Created by potrace 1.10, written by Peter Selinger 2001-2011
</metadata>
<g transform="translate(0.000000,198.000000) scale(0.100000,-0.100000)"
fill="#ffffff" stroke="none">
<path d="M663 1821 c-109 -37 -191 -118 -266 -259 -39 -74 -48 -102 -58 -181
-24 -187 26 -309 166 -403 39 -26 86 -50 105 -53 89 -15 236 -131 273 -215 22
-51 54 -90 74 -90 7 0 19 15 27 33 7 17 30 54 50 82 30 41 36 58 36 100 0 109
-55 192 -176 265 -68 41 -158 129 -185 182 -23 45 -25 127 -5 167 8 15 33 44
55 64 52 47 92 49 147 8 68 -50 79 -66 76 -124 -8 -143 -9 -132 18 -130 29 3
90 66 115 119 9 19 19 68 22 108 5 64 3 77 -22 125 -37 74 -121 155 -197 191
-52 25 -75 30 -133 29 -39 0 -93 -8 -122 -18z"/>
<path d="M1383 1328 c-95 -37 -168 -137 -129 -176 14 -15 21 -13 75 13 56 26
64 27 101 16 122 -36 71 -201 -89 -283 -115 -59 -181 -109 -249 -189 -35 -41
-74 -86 -88 -102 -26 -29 -31 -75 -14 -108 16 -30 38 -23 96 30 30 27 68 52
85 56 17 4 46 16 64 26 23 14 48 19 87 17 61 -2 119 25 211 102 127 107 188
209 195 332 4 69 2 84 -21 130 -69 140 -188 190 -324 136z"/>
<path d="M305 880 c-67 -39 -76 -48 -113 -98 -39 -54 -49 -115 -28 -165 8 -20
22 -37 30 -37 16 0 21 14 30 85 4 31 15 49 52 83 39 35 53 42 87 42 55 0 151
-47 204 -100 63 -62 83 -112 83 -203 l0 -77 52 -57 c60 -67 81 -82 114 -75 39
7 67 97 61 197 -5 70 -11 90 -52 170 -77 148 -125 191 -264 234 -130 41 -189
41 -256 1z"/>
<path d="M1239 552 c-13 -11 -62 -40 -109 -65 -61 -34 -112 -73 -183 -142
l-98 -95 19 -42 c26 -56 67 -98 96 -98 29 0 96 70 129 137 31 61 112 137 174
164 44 19 58 20 178 13 289 -17 349 -11 423 43 55 41 39 66 -33 52 -94 -19
-204 -6 -310 35 -27 10 -76 15 -151 16 -93 0 -115 -3 -135 -18z"/>
</g>
</svg>
