<?xml version="1.0" standalone="no"?>
<!DOCTYPE svg PUBLIC "-//W3C//DTD SVG 20010904//EN"
 "http://www.w3.org/TR/2001/REC-SVG-20010904/DTD/svg10.dtd">
<svg version="1.0" xmlns="http://www.w3.org/2000/svg"
 width="900.000000pt" height="954.000000pt" viewBox="0 0 900.000000 954.000000"
 preserveAspectRatio="xMidYMid meet">
<metadata>
Created by potrace 1.10, written by Peter Selinger 2001-2011
</metadata>
<g transform="translate(0.000000,954.000000) scale(0.100000,-0.100000)"
fill="#ffffff" stroke="none">
<path d="M4279 8913 c-59 -30 -110 -94 -129 -161 -21 -74 -34 -191 -24 -219
31 -90 332 -149 459 -89 73 33 80 45 77 133 -4 138 -40 250 -99 305 -68 65
-190 78 -284 31z"/>
<path d="M3943 8293 c-42 -46 -68 -95 -83 -155 -16 -62 6 -101 90 -168 157
-123 185 -148 227 -207 55 -77 72 -83 243 -83 145 0 160 6 179 71 10 34 41 72
140 174 148 151 161 168 161 213 0 38 -40 124 -73 160 -28 30 -58 27 -197 -24
-98 -35 -112 -38 -220 -38 -112 0 -119 1 -251 47 -74 26 -145 47 -158 47 -14
0 -37 -15 -58 -37z"/>
<path d="M5096 8005 c-55 -19 -149 -115 -180 -184 -57 -127 -69 -212 -70 -501
l-1 -265 58 -83 c33 -45 93 -121 136 -170 154 -175 189 -256 162 -383 -17 -78
-50 -122 -116 -155 -92 -45 -162 -39 -368 30 -152 51 -175 56 -255 56 -95 0
-172 -10 -302 -40 -243 -55 -422 -66 -502 -31 -53 22 -90 70 -108 139 -23 89
16 178 134 303 45 48 101 119 126 158 50 81 68 107 123 184 28 39 40 69 48
117 11 68 5 163 -13 208 -6 15 -14 64 -18 109 -9 91 -50 192 -111 272 -19 24
-48 63 -65 88 -17 24 -53 60 -79 81 -48 37 -48 37 -144 37 -177 0 -280 -57
-280 -155 0 -62 46 -120 162 -207 101 -75 127 -109 127 -171 0 -58 -36 -109
-189 -268 -209 -217 -274 -319 -342 -537 -65 -210 -79 -244 -120 -291 -44 -49
-79 -64 -219 -92 -217 -42 -307 -87 -468 -234 -64 -59 -148 -144 -187 -189
-79 -92 -151 -146 -210 -155 -62 -10 -107 22 -193 137 -90 118 -127 149 -190
154 -88 9 -147 -60 -178 -210 -19 -88 -14 -205 10 -242 29 -44 93 -82 196
-115 63 -20 119 -46 155 -71 73 -53 104 -65 210 -79 105 -15 198 -7 224 19 36
36 108 79 176 105 81 32 194 100 245 147 134 125 195 159 290 159 113 0 175
-45 206 -147 21 -69 17 -135 -17 -299 -30 -140 -32 -162 -33 -374 -1 -245 5
-291 55 -418 39 -99 51 -158 44 -214 -9 -63 -57 -133 -109 -160 -51 -26 -175
-36 -232 -18 -64 20 -154 79 -244 161 -94 85 -205 159 -283 191 -142 56 -484
21 -732 -76 -57 -22 -94 -44 -127 -77 l-48 -45 0 -114 c0 -187 43 -285 142
-325 85 -34 146 -2 203 107 48 92 97 152 136 168 39 17 122 7 157 -19 32 -22
121 -117 210 -222 100 -117 195 -194 307 -250 89 -45 115 -52 228 -69 156 -24
214 -47 263 -107 54 -66 81 -130 120 -285 19 -78 42 -155 51 -172 46 -91 173
-239 322 -376 113 -103 151 -156 151 -207 -1 -51 -36 -108 -101 -164 -152
-130 -173 -167 -144 -267 9 -31 26 -69 37 -85 28 -40 107 -76 201 -93 108 -19
146 -18 183 5 72 44 204 265 247 416 68 233 61 370 -23 485 -22 30 -52 78 -66
105 -36 68 -87 143 -180 261 -89 114 -133 200 -141 277 -9 92 24 159 100 199
35 18 58 22 132 22 101 -1 178 -22 350 -94 124 -53 224 -71 322 -60 56 6 99
20 204 69 153 72 219 91 304 91 164 -1 258 -135 225 -322 -15 -82 -56 -152
-147 -252 -91 -99 -108 -134 -127 -262 -9 -54 -32 -171 -52 -259 -40 -178 -44
-249 -20 -345 51 -197 131 -327 212 -344 139 -28 240 -28 294 0 38 19 97 84
115 126 19 47 19 120 0 157 -8 16 -61 72 -119 126 -134 124 -161 185 -120 271
17 36 48 61 194 156 115 76 204 166 259 265 32 58 48 102 71 210 37 167 57
212 132 285 65 64 164 117 331 175 275 95 435 210 547 393 19 30 53 78 77 107
91 109 193 78 330 -99 84 -110 182 -150 267 -109 89 44 123 124 113 269 -3 48
-11 103 -18 122 -28 82 -148 183 -269 227 -25 8 -73 29 -108 44 -68 32 -104
35 -215 18 -256 -38 -260 -39 -365 -89 -123 -59 -161 -85 -271 -184 -48 -44
-112 -90 -149 -108 -57 -28 -76 -33 -142 -32 -86 0 -130 16 -194 69 -52 43
-76 95 -76 168 0 72 20 142 84 299 63 154 91 276 82 354 -3 30 -29 109 -57
176 -67 165 -89 252 -89 358 0 104 24 163 80 192 44 23 142 24 207 2 47 -16
190 -103 246 -150 16 -13 97 -58 180 -100 146 -72 156 -76 252 -86 241 -24
506 17 664 104 84 46 149 101 162 135 15 40 -17 189 -58 271 -41 83 -81 112
-153 112 -59 0 -105 -28 -190 -115 -107 -110 -144 -135 -197 -135 -67 0 -109
28 -221 148 -136 147 -337 315 -427 358 -40 19 -135 49 -218 69 -82 19 -161
42 -176 50 -90 46 -131 115 -156 260 -23 138 -41 197 -88 290 -36 71 -60 100
-227 265 -215 212 -245 254 -237 333 4 47 9 56 53 95 27 24 73 55 102 69 75
36 149 109 157 154 10 56 -23 112 -95 158 -84 54 -247 82 -324 56z m-575
-1995 c81 -14 194 -78 326 -181 211 -166 363 -310 485 -460 40 -48 123 -217
177 -356 57 -149 34 -290 -84 -525 -101 -199 -336 -471 -490 -564 -91 -56
-289 -148 -395 -184 -113 -39 -174 -38 -309 5 -284 90 -507 247 -682 480 -29
39 -72 92 -95 118 -162 181 -223 345 -211 561 8 147 56 280 142 394 114 152
455 470 636 594 153 105 336 148 500 118z"/>
<path d="M4305 7516 c-73 -15 -120 -39 -136 -68 -14 -26 -5 -280 12 -343 15
-55 51 -89 120 -116 148 -55 281 19 340 188 31 90 26 148 -17 213 -91 138
-149 160 -319 126z"/>
<path d="M7661 5389 c-28 -11 -88 -59 -173 -136 -73 -67 -123 -98 -210 -131
-65 -25 -72 -31 -85 -67 -34 -93 -54 -288 -37 -352 4 -16 21 -27 58 -39 100
-33 195 -85 276 -151 131 -109 167 -134 202 -139 45 -8 134 27 187 73 40 34
43 39 38 75 -3 21 -23 66 -45 100 -137 219 -148 359 -39 518 80 116 80 116 65
144 -24 46 -142 117 -192 115 -11 0 -32 -5 -45 -10z"/>
<path d="M1009 5327 c-40 -21 -44 -27 -47 -66 -4 -48 20 -174 51 -276 45 -146
23 -311 -60 -447 -46 -77 -42 -96 26 -130 125 -63 235 -16 385 166 21 26 62
61 91 77 32 18 55 39 58 52 3 12 7 89 8 171 l3 149 -35 30 c-70 60 -177 144
-277 220 -115 86 -133 91 -203 54z"/>
<path d="M6703 5140 c-87 -18 -139 -61 -180 -149 -52 -111 -10 -262 91 -328
59 -39 110 -48 213 -38 69 6 81 11 109 39 47 47 64 116 64 262 0 165 -4 183
-49 201 -42 18 -188 26 -248 13z"/>
<path d="M605 5130 c-96 -9 -145 -25 -201 -63 -115 -76 -141 -227 -60 -338 41
-55 139 -107 263 -138 118 -30 127 -29 183 29 83 85 94 185 39 371 -45 154
-49 157 -224 139z"/>
<path d="M8054 5122 c-89 -42 -135 -132 -120 -235 15 -96 112 -244 188 -283
55 -29 178 -10 264 41 60 35 87 93 87 185 0 90 -30 156 -99 219 -61 56 -120
80 -214 87 -51 4 -74 1 -106 -14z"/>
<path d="M1867 5060 c-27 -5 -59 -15 -72 -24 -31 -20 -91 -95 -104 -129 -29
-76 -1 -184 65 -248 34 -34 53 -43 95 -50 78 -12 234 6 289 34 50 26 113 107
130 166 22 78 5 165 -38 204 -38 34 -267 64 -365 47z"/>
<path d="M4290 2751 c-47 -15 -89 -41 -100 -62 -12 -22 -15 -142 -5 -218 14
-111 28 -187 37 -203 8 -16 27 -18 189 -18 176 0 180 1 204 24 51 51 83 233
51 294 -22 42 -126 136 -179 161 -52 25 -154 36 -197 22z"/>
<path d="M4290 2070 c-57 -19 -95 -55 -142 -133 -62 -102 -117 -180 -182 -257
-116 -137 -120 -144 -106 -171 24 -48 123 -139 150 -139 14 0 61 21 105 47
167 97 182 103 259 103 139 0 254 -47 340 -139 42 -44 68 -40 114 18 48 60 66
103 58 136 -7 26 -122 202 -161 245 -39 43 -105 148 -134 213 -23 50 -36 67
-64 80 -48 23 -166 22 -237 -3z"/>
<path d="M4313 1339 c-62 -18 -157 -91 -181 -139 -20 -40 -22 -54 -17 -120 11
-130 22 -159 84 -220 93 -92 217 -116 321 -62 69 35 105 81 126 161 20 79 14
120 -31 230 -39 94 -63 126 -109 140 -48 15 -158 21 -193 10z"/>
</g>
</svg>
