<?xml version="1.0" standalone="no"?>
<!DOCTYPE svg PUBLIC "-//W3C//DTD SVG 20010904//EN"
 "http://www.w3.org/TR/2001/REC-SVG-20010904/DTD/svg10.dtd">
<svg version="1.0" xmlns="http://www.w3.org/2000/svg"
 width="180.000000pt" height="210.000000pt" viewBox="0 0 180.000000 210.000000"
 preserveAspectRatio="xMidYMid meet">
<metadata>
Created by potrace 1.10, written by Peter Selinger 2001-2011
</metadata>
<g transform="translate(0.000000,210.000000) scale(0.100000,-0.100000)"
fill="#fff" stroke="none">
<path d="M863 1959 c-66 -20 -97 -105 -52 -145 12 -10 30 -38 41 -61 11 -25
31 -49 47 -58 52 -26 48 -46 -23 -103 -23 -19 -20 -30 18 -68 26 -26 42 -34
70 -34 57 0 163 47 192 86 14 18 34 36 45 39 62 20 82 -46 29 -93 -35 -31 -37
-49 -10 -101 10 -21 16 -41 13 -45 -4 -4 -32 -4 -62 -1 -49 6 -60 3 -87 -17
-55 -42 -91 -92 -114 -162 -23 -70 -48 -106 -75 -106 -20 0 -35 32 -35 78 0
38 -11 52 -40 52 -5 0 -32 -20 -60 -45 -28 -25 -67 -53 -88 -64 -20 -10 -64
-40 -96 -65 -33 -25 -69 -46 -80 -46 -30 0 -92 47 -131 100 -54 73 -48 81 39
55 66 -20 100 -5 104 46 6 77 -136 291 -216 325 -29 13 -37 13 -76 -4 -49 -22
-82 -77 -72 -121 3 -14 14 -67 24 -118 23 -112 49 -157 150 -263 42 -46 101
-114 130 -154 79 -105 129 -152 197 -187 38 -20 73 -48 95 -77 60 -78 87 -102
114 -102 30 0 32 -7 10 -39 -14 -19 -22 -22 -48 -16 -90 18 -104 18 -116 -5
-17 -31 -8 -62 46 -176 51 -109 69 -134 93 -134 9 0 82 44 163 98 281 186 502
372 534 449 17 38 9 62 -44 145 -29 46 -46 62 -80 75 -32 12 -48 26 -60 50
-18 38 -27 4 83 321 41 119 68 211 68 240 2 66 -31 129 -117 216 -72 75 -136
116 -179 116 -27 0 -81 -34 -140 -87 -65 -58 -89 -23 -38 54 35 53 37 60 16
90 -36 51 -121 80 -182 62z m391 -1221 c-56 -62 -208 -179 -277 -214 -27 -14
-58 -24 -70 -22 -18 3 -11 11 41 48 35 25 105 75 155 111 51 37 106 73 123 82
17 9 36 23 43 31 8 9 18 16 24 16 5 0 -12 -24 -39 -52z"/>
<path d="M605 1863 c-46 -24 -75 -54 -75 -77 0 -26 20 -56 88 -136 29 -34 70
-97 92 -140 46 -92 99 -142 145 -138 23 2 31 9 33 27 3 17 -9 35 -47 70 -57
53 -65 87 -31 131 27 35 25 50 -16 133 -40 80 -66 112 -106 133 -34 18 -45 17
-83 -3z"/>
<path d="M374 1676 c-26 -26 -34 -42 -34 -70 0 -41 26 -97 65 -144 14 -17 38
-55 53 -84 36 -70 96 -135 139 -149 74 -24 133 37 112 117 -20 71 -199 344
-235 358 -36 14 -67 5 -100 -28z"/>
</g>
</svg>
