<?xml version="1.0" standalone="no"?>
<!DOCTYPE svg PUBLIC "-//W3C//DTD SVG 20010904//EN"
 "http://www.w3.org/TR/2001/REC-SVG-20010904/DTD/svg10.dtd">
<svg version="1.0" xmlns="http://www.w3.org/2000/svg"
 width="300.000000pt" height="309.000000pt" viewBox="0 0 300.000000 309.000000"
 preserveAspectRatio="xMidYMid meet">
<metadata>
Created by potrace 1.10, written by Peter Selinger 2001-2011
</metadata>
<g transform="translate(0.000000,309.000000) scale(0.100000,-0.100000)"
fill="#ffffff" stroke="none">
<path d="M1489 2876 c-102 -36 -350 -254 -438 -384 -50 -74 -161 -290 -161
-313 0 -9 -11 -47 -25 -84 -14 -37 -34 -105 -45 -150 -11 -45 -41 -134 -68
-196 -28 -63 -53 -125 -57 -139 -30 -100 -172 -396 -235 -490 -61 -90 -118
-202 -129 -251 -8 -36 -7 -60 5 -105 18 -71 45 -113 118 -188 70 -72 140 -106
221 -106 113 0 285 30 379 66 55 21 97 32 110 28 12 -3 89 -73 172 -155 129
-128 155 -149 182 -149 26 0 53 21 182 148 83 81 164 154 181 162 27 12 35 12
77 -4 26 -10 103 -37 172 -59 106 -34 139 -40 215 -41 84 0 95 2 170 37 44 21
100 57 124 80 78 76 110 180 80 266 -13 38 -88 168 -151 263 -25 38 -60 103
-78 145 -18 43 -57 130 -86 193 -74 161 -110 257 -118 315 -17 128 -60 314
-91 402 -40 112 -98 213 -206 356 -110 146 -159 198 -264 277 -125 94 -157
105 -236 76z m57 -1193 c14 -16 40 -48 58 -73 34 -48 68 -65 190 -96 92 -23
129 -55 129 -113 0 -31 -8 -53 -31 -84 -16 -23 -44 -80 -62 -126 -20 -52 -48
-102 -76 -134 -24 -29 -57 -79 -73 -113 -35 -74 -77 -111 -135 -119 -64 -10
-123 22 -222 121 -99 98 -154 177 -194 279 -17 42 -42 99 -56 126 -17 34 -24
63 -22 87 3 33 8 40 48 59 25 12 86 31 137 42 111 24 144 40 180 88 70 92 89
100 129 56z"/>
<path d="M1431 1378 c-20 -11 -22 -17 -17 -55 3 -23 14 -67 25 -98 11 -31 23
-76 27 -100 10 -73 54 -88 54 -19 0 19 14 61 30 94 17 33 33 80 36 104 6 39 4
46 -18 60 -32 21 -107 29 -137 14z"/>
</g>
</svg>
