<?xml version="1.0" standalone="no"?>
<!DOCTYPE svg PUBLIC "-//W3C//DTD SVG 20010904//EN"
 "http://www.w3.org/TR/2001/REC-SVG-20010904/DTD/svg10.dtd">
<svg version="1.0" xmlns="http://www.w3.org/2000/svg"
 width="300.000000pt" height="327.000000pt" viewBox="0 0 300.000000 327.000000"
 preserveAspectRatio="xMidYMid meet">
<metadata>
Created by potrace 1.10, written by Peter Selinger 2001-2011
</metadata>
<g transform="translate(0.000000,327.000000) scale(0.100000,-0.100000)"
fill="#fff" stroke="none">
<path d="M1404 2911 c-44 -37 -91 -90 -127 -143 -60 -89 -157 -270 -157 -291
0 -7 -15 -60 -34 -118 -48 -147 -60 -233 -53 -396 4 -111 11 -160 35 -248 17
-60 33 -130 37 -155 4 -25 14 -57 21 -72 20 -39 68 -38 120 2 128 98 234 166
302 194 83 35 176 96 187 123 11 30 -23 43 -114 43 -101 0 -150 12 -189 45
-41 34 -90 133 -107 212 -17 79 -20 324 -5 404 14 79 94 276 146 359 24 39 44
78 44 86 0 29 -38 12 -106 -45z"/>
<path d="M2422 1820 c-23 -5 -46 -11 -50 -14 -5 -3 -66 -15 -137 -26 -109 -19
-157 -33 -314 -97 -275 -110 -450 -204 -604 -326 -82 -65 -108 -101 -92 -126
15 -25 85 -5 143 40 13 10 53 28 90 40 37 12 95 37 130 56 35 18 72 33 83 33
10 0 66 16 124 35 84 28 132 38 240 46 159 13 181 8 225 -56 63 -91 65 -106
65 -385 l0 -255 -32 -115 c-18 -63 -35 -136 -39 -162 -12 -86 15 -126 51 -75
62 87 111 180 139 264 40 120 97 271 126 338 12 28 32 119 46 215 22 138 25
185 20 290 -7 142 -28 229 -62 260 -26 26 -87 33 -152 20z"/>
<path d="M321 1527 c-1 -10 3 -37 9 -60 5 -23 16 -89 25 -147 13 -86 26 -126
69 -220 59 -127 106 -236 126 -290 23 -61 154 -252 226 -329 84 -91 188 -160
291 -196 61 -20 112 -28 236 -37 172 -12 198 -8 219 37 10 21 3 39 -53 152
-64 127 -64 128 -64 213 1 76 5 96 44 195 40 101 50 117 119 188 42 42 94 88
117 102 56 32 116 100 108 121 -11 28 -85 11 -208 -49 -143 -70 -197 -105
-312 -201 -110 -92 -155 -151 -178 -231 -18 -65 -52 -105 -88 -105 -42 0 -143
57 -216 122 -90 80 -194 226 -267 374 -29 61 -54 116 -54 122 0 33 -47 130
-84 171 -22 26 -46 56 -53 67 -11 18 -12 18 -12 1z"/>
</g>
</svg>
