<?xml version="1.0" standalone="no"?>
<!DOCTYPE svg PUBLIC "-//W3C//DTD SVG 20010904//EN"
 "http://www.w3.org/TR/2001/REC-SVG-20010904/DTD/svg10.dtd">
<svg version="1.0" xmlns="http://www.w3.org/2000/svg"
 width="300.000000pt" height="309.000000pt" viewBox="0 0 300.000000 309.000000"
 preserveAspectRatio="xMidYMid meet">
<metadata>
Created by potrace 1.10, written by Peter Selinger 2001-2011
</metadata>
<g transform="translate(0.000000,309.000000) scale(0.100000,-0.100000)"
fill="#ffffff" stroke="none">
<path d="M1924 2886 c-63 -28 -79 -83 -48 -167 35 -98 -13 -233 -130 -370 -80
-93 -126 -130 -174 -136 -80 -11 -243 140 -321 294 -36 72 -41 91 -41 148 0
73 -15 112 -56 144 -34 27 -64 27 -98 0 -59 -47 -73 -117 -36 -189 12 -23 24
-68 27 -99 8 -82 75 -230 150 -331 35 -47 63 -91 63 -97 0 -7 -10 -13 -23 -13
-21 0 -71 37 -152 112 -16 15 -67 41 -112 58 -166 60 -209 89 -253 172 -44 82
-73 108 -120 108 -48 0 -86 -30 -99 -77 -14 -51 -3 -89 38 -127 20 -18 88 -82
151 -143 125 -119 186 -166 278 -212 57 -29 112 -80 112 -104 0 -7 -13 -40
-30 -75 -16 -35 -41 -107 -55 -160 -14 -53 -34 -131 -45 -172 -22 -81 -39
-265 -39 -425 0 -74 4 -110 17 -137 9 -21 129 -151 273 -297 206 -210 262
-261 283 -261 21 0 78 52 288 263 144 144 275 280 291 302 l29 40 -7 145 c-9
202 -67 530 -111 625 -47 100 -25 150 84 185 73 24 157 67 212 110 19 14 60
41 90 59 30 19 78 55 106 81 28 27 82 68 120 93 123 79 153 142 102 217 -74
109 -166 98 -218 -26 -14 -33 -33 -72 -42 -86 -23 -35 -157 -100 -270 -132
-48 -14 -135 -46 -194 -71 -99 -42 -134 -52 -134 -40 0 14 62 126 84 152 49
59 95 172 110 275 11 76 22 111 51 163 54 96 49 155 -18 195 -37 23 -89 25
-133 6z"/>
<path d="M2594 1814 c-21 -15 -55 -41 -75 -59 -43 -38 -38 -37 -198 -69 -68
-14 -134 -33 -147 -41 -31 -20 -40 -59 -25 -109 47 -165 61 -240 61 -330 0
-115 8 -137 68 -199 98 -101 151 -102 182 -2 24 77 54 121 131 196 l79 77 0
179 c0 131 4 193 15 229 18 59 19 126 3 142 -19 19 -52 14 -94 -14z"/>
<path d="M303 1814 c-3 -9 0 -48 8 -87 9 -46 14 -141 14 -264 l0 -191 76 -79
c77 -78 111 -131 123 -189 17 -77 81 -88 153 -27 77 65 93 106 93 238 0 130
12 208 47 289 48 114 18 154 -134 181 -144 25 -166 32 -212 67 -90 69 -105 78
-133 78 -17 0 -31 -6 -35 -16z"/>
</g>
</svg>
