 <svg  version="1.0" xmlns="http://www.w3.org/2000/svg"  width="300.000000pt" height="267.000000pt" viewBox="0 0 300.000000 267.000000"  preserveAspectRatio="xMidYMid meet">  <g transform="translate(0.000000,267.000000) scale(0.100000,-0.100000)" fill="#ffffff" stroke="none"> <path d="M1110 2414 c-6 -14 -10 -39 -10 -56 0 -36 -75 -314 -101 -375 -10 -25 -19 -67 -19 -94 0 -67 -22 -78 -114 -55 -36 9 -76 16 -89 16 -75 0 -322 87 -396 140 -16 11 -41 20 -55 20 -44 0 -34 -44 33 -149 125 -194 307 -387 441 -465 37 -22 56 -40 61 -59 4 -15 3 -102 -3 -195 -5 -92 -11 -219 -12 -282 -2 -63 -6 -147 -11 -187 -12 -107 26 -265 96 -405 24 -46 34 -58 53 -58 21 0 28 10 50 68 14 37 30 91 36 120 21 113 117 299 208 405 66 76 72 91 65 161 -6 53 -5 56 17 56 12 0 68 -20 124 -44 89 -39 210 -86 481 -189 44 -16 148 -52 230 -79 83 -27 184 -60 225 -74 166 -57 219 -16 125 96 -19 23 -56 81 -81 128 -58 110 -113 193 -235 357 -109 146 -132 171 -171 180 -20 5 -32 1 -48 -15 -19 -19 -22 -31 -18 -70 3 -26 14 -61 26 -77 11 -16 37 -66 57 -111 57 -130 32 -164 -91 -123 -38 12 -92 21 -132 22 -37 0 -107 6 -156 13 -79 11 -92 16 -116 43 -26 29 -31 30 -101 29 -70 -1 -78 1 -139 38 -98 60 -100 63 -100 118 0 37 -6 57 -25 82 -35 46 -41 89 -20 136 32 72 -6 91 -86 45 -81 -46 -96 -36 -101 70 -3 46 -5 50 -30 53 -33 4 -56 -28 -64 -84 -12 -86 -12 -87 -46 -80 -40 8 -163 101 -189 142 -41 68 -14 90 121 99 69 5 115 3 170 -9 41 -8 125 -20 185 -26 61 -5 138 -15 172 -21 46 -8 80 -8 132 1 69 11 97 28 89 51 -5 15 -142 43 -309 64 -175 22 -190 33 -148 118 29 58 48 77 75 77 32 0 303 -98 335 -121 15 -10 36 -39 48 -64 15 -33 28 -46 48 -50 66 -14 118 -42 140 -74 36 -53 31 -61 -36 -61 -41 0 -64 -5 -76 -16 -18 -18 -15 -30 26 -118 16 -34 29 -71 29 -83 0 -38 -37 -110 -74 -144 -29 -26 -36 -39 -36 -71 0 -66 21 -57 189 82 57 47 124 99 149 117 26 17 67 49 92 71 25 22 77 60 115 85 39 24 109 76 156 113 47 38 121 97 164 132 104 83 137 131 99 146 -15 6 -30 1 -229 -74 -90 -34 -130 -44 -220 -51 -147 -13 -167 -30 -90 -76 24 -15 46 -34 48 -43 6 -27 -20 -63 -101 -142 -80 -78 -119 -96 -139 -65 -11 16 -31 126 -25 132 3 3 15 5 27 5 26 0 55 29 55 56 0 23 -111 127 -285 266 -157 125 -300 289 -346 395 -44 103 -98 143 -119 87z m-31 -1129 c11 -14 23 -39 26 -56 4 -17 22 -41 42 -57 69 -52 113 -94 113 -107 0 -8 -14 -23 -30 -35 -17 -12 -50 -47 -72 -78 -23 -32 -51 -65 -63 -74 -23 -20 -70 -24 -81 -7 -3 6 -9 88 -12 182 -6 217 -6 221 1 241 10 25 53 19 76 -9z"/> <path d="M1362 1504 c-56 -59 -62 -70 -62 -108 0 -33 6 -48 28 -68 57 -53 128 -73 166 -45 9 7 21 30 26 52 14 58 12 169 -2 187 -19 22 -60 48 -78 48 -8 0 -43 -30 -78 -66z"/> </g> </svg> 