 <svg  version="1.0" xmlns="http://www.w3.org/2000/svg"  width="210.000000pt" height="108.000000pt" viewBox="0 0 210.000000 108.000000"  preserveAspectRatio="xMidYMid meet">  <g transform="translate(0.000000,108.000000) scale(0.100000,-0.100000)" fill="#ffffff" stroke="none"> <path d="M708 808 c-168 -144 -403 -403 -448 -493 -18 -35 -18 -40 -4 -43 8 -2 41 19 72 47 85 76 304 221 333 221 35 0 57 -27 65 -80 13 -89 54 -113 111 -67 35 29 219 127 238 127 19 0 35 -32 35 -70 0 -74 33 -86 123 -44 93 42 224 73 362 85 217 18 234 24 183 62 -22 17 -55 23 -170 33 -79 7 -168 13 -199 13 -80 1 -93 14 -99 102 -7 98 -15 102 -121 57 -46 -20 -102 -41 -124 -48 -22 -7 -58 -23 -81 -36 -22 -13 -48 -24 -56 -24 -26 0 -46 33 -58 97 -15 74 -42 123 -69 123 -11 0 -53 -28 -93 -62z"/> </g> </svg> 