<?xml version="1.0" standalone="no"?>
<!DOCTYPE svg PUBLIC "-//W3C//DTD SVG 20010904//EN"
 "http://www.w3.org/TR/2001/REC-SVG-20010904/DTD/svg10.dtd">
<svg version="1.0" xmlns="http://www.w3.org/2000/svg"
 width="300.000000pt" height="318.000000pt" viewBox="0 0 300.000000 318.000000"
 preserveAspectRatio="xMidYMid meet">
<metadata>
Created by potrace 1.10, written by Peter Selinger 2001-2011
</metadata>
<g transform="translate(0.000000,318.000000) scale(0.100000,-0.100000)"
fill="#ffffff" stroke="none">
<path d="M1397 2936 c-157 -122 -340 -207 -560 -262 -190 -48 -306 -58 -476
-43 l-135 11 -22 -25 c-22 -26 -22 -29 -19 -304 1 -165 9 -345 19 -443 21
-198 78 -488 116 -585 15 -38 35 -95 45 -125 29 -92 119 -271 168 -335 81
-108 231 -216 479 -346 95 -50 231 -130 303 -177 71 -48 138 -90 148 -94 32
-13 66 2 160 74 60 46 146 97 247 146 273 134 428 237 545 364 73 79 153 230
203 383 17 50 37 106 46 125 14 31 50 187 91 395 20 104 37 334 42 565 6 248
-1 321 -30 356 l-22 25 -134 -8 c-138 -9 -284 -2 -381 18 -90 18 -260 69 -319
96 -31 14 -74 31 -96 39 -46 17 -150 82 -215 135 -93 75 -123 77 -203 15z m30
-211 c3 -9 0 -42 -6 -74 -17 -85 -168 -532 -190 -561 -10 -14 -36 -30 -57 -37
-49 -15 -495 -17 -579 -3 -106 18 -148 -6 -118 -67 10 -22 56 -60 141 -119
301 -207 422 -309 422 -354 0 -10 -14 -54 -31 -97 -43 -106 -78 -209 -90 -263
-6 -25 -28 -90 -49 -145 -21 -55 -41 -113 -45 -128 -12 -59 -86 -60 -141 -2
-30 32 -141 245 -198 381 -31 73 -96 357 -96 418 0 25 -7 80 -15 123 -9 43
-16 116 -15 163 0 47 -3 176 -6 287 -8 256 -22 238 189 239 128 0 170 5 270
28 193 45 380 115 457 171 72 53 144 71 157 40z m228 -16 c22 -10 56 -27 75
-38 81 -47 235 -103 384 -141 180 -45 288 -58 362 -42 63 14 102 4 128 -32 18
-23 21 -44 23 -129 1 -56 -3 -140 -9 -187 -6 -47 -12 -137 -13 -200 -3 -143
-18 -295 -39 -380 -8 -36 -20 -95 -26 -132 -17 -113 -102 -309 -217 -503 -30
-51 -82 -95 -113 -95 -33 0 -60 35 -79 100 -62 210 -116 377 -153 466 -46 113
-46 135 1 182 35 35 318 248 381 287 73 45 120 85 136 117 15 29 15 32 -5 52
-16 15 -32 20 -64 19 -23 -2 -155 -5 -294 -9 -275 -6 -346 1 -380 39 -16 18
-84 210 -108 307 -4 14 -24 70 -45 125 -46 119 -64 189 -56 211 7 19 48 13
111 -17z m-73 -1542 c29 -24 89 -67 133 -96 44 -30 107 -75 140 -101 33 -26
96 -71 140 -100 44 -29 83 -58 87 -64 15 -22 8 -63 -14 -83 -27 -25 -217 -132
-338 -191 -47 -23 -114 -59 -149 -82 -91 -57 -107 -55 -259 32 -70 39 -185
105 -257 146 -166 94 -201 126 -178 166 9 16 100 83 313 230 80 55 170 119
200 143 75 58 109 58 182 0z"/>
</g>
</svg>
