<?xml version="1.0" standalone="no"?>
<!DOCTYPE svg PUBLIC "-//W3C//DTD SVG 20010904//EN"
 "http://www.w3.org/TR/2001/REC-SVG-20010904/DTD/svg10.dtd">
<svg version="1.0" xmlns="http://www.w3.org/2000/svg"
 width="105.000000pt" height="105.000000pt" viewBox="0 0 105.000000 105.000000"
 preserveAspectRatio="xMidYMid meet">
<metadata>
Created by potrace 1.10, written by Peter Selinger 2001-2011
</metadata>
<g transform="translate(0.000000,105.000000) scale(0.100000,-0.100000)"
fill="#fff" stroke="none">
<path d="M600 939 c-25 -6 -76 -14 -115 -19 -371 -48 -350 -44 -381 -77 -22
-24 -24 -34 -24 -129 0 -97 2 -106 30 -154 16 -28 30 -53 30 -56 0 -2 11 -21
23 -42 13 -20 50 -86 82 -147 31 -60 64 -119 72 -131 20 -32 62 -46 124 -42
50 3 54 5 54 28 0 24 -3 25 -67 28 -77 3 -81 8 -91 84 -15 111 11 125 318 172
149 22 196 25 200 12 2 -6 6 -52 8 -102 5 -90 5 -92 -19 -103 -32 -14 -61 0
-70 33 -3 13 -15 33 -27 44 -21 20 -25 20 -136 7 -63 -8 -118 -19 -121 -26 -4
-6 2 -29 13 -52 28 -59 57 -146 57 -173 0 -39 17 -36 70 11 28 25 55 45 61 45
5 0 27 -9 49 -20 41 -21 80 -26 80 -11 0 5 -5 22 -11 38 -14 37 4 49 82 58 34
4 63 13 65 20 3 7 -13 50 -36 95 -50 99 -49 140 0 160 30 12 40 42 19 55 -5 4
-14 17 -20 28 -5 12 -13 29 -19 37 -6 8 -47 80 -91 160 -45 80 -88 153 -97
163 -16 18 -42 20 -112 6z"/>
</g>
</svg>
