<?xml version="1.0" standalone="no"?>
<!DOCTYPE svg PUBLIC "-//W3C//DTD SVG 20010904//EN"
 "http://www.w3.org/TR/2001/REC-SVG-20010904/DTD/svg10.dtd">
<svg version="1.0" xmlns="http://www.w3.org/2000/svg"
 width="300.000000pt" height="276.000000pt" viewBox="0 0 300.000000 276.000000"
 preserveAspectRatio="xMidYMid meet">
<metadata>
Created by potrace 1.10, written by Peter Selinger 2001-2011
</metadata>
<g transform="translate(0.000000,276.000000) scale(0.100000,-0.100000)"
fill="#ffffff" stroke="none">
<path d="M1515 2542 c-6 -4 -28 -34 -49 -67 -21 -33 -78 -109 -126 -170 -47
-60 -113 -148 -145 -195 -33 -47 -87 -121 -120 -165 -33 -44 -69 -93 -79 -110
-11 -16 -40 -55 -66 -85 -45 -53 -294 -386 -430 -575 -36 -49 -91 -117 -122
-151 -60 -63 -72 -99 -45 -126 11 -11 230 -13 1207 -12 l1193 1 18 22 c26 32
12 59 -80 157 -43 45 -103 118 -133 161 -61 87 -141 194 -381 512 -89 118
-206 277 -259 353 -53 76 -123 171 -156 211 -32 39 -84 107 -115 149 -31 42
-65 82 -76 87 -23 13 -23 13 -36 3z m-198 -708 c2 -6 -17 -42 -43 -80 -26 -38
-61 -97 -77 -132 -27 -58 -29 -70 -25 -146 8 -150 94 -284 221 -342 53 -25 74
-29 147 -29 76 0 93 4 152 33 123 60 198 180 206 328 3 46 2 98 -2 117 -4 19
-38 82 -76 140 -39 57 -70 109 -70 116 0 6 11 11 25 11 67 0 187 -80 281 -189
68 -77 180 -264 184 -306 6 -57 -2 -78 -47 -126 -96 -103 -283 -201 -415 -219
-40 -6 -91 -14 -113 -20 -63 -15 -148 -12 -305 11 -219 33 -347 95 -469 225
-75 80 -78 103 -24 207 75 147 174 273 276 353 71 55 163 81 174 48z"/>
<path d="M754 740 c-32 -13 -84 -78 -84 -106 0 -36 84 -124 119 -124 30 0 106
66 121 105 14 37 -10 78 -63 110 -46 26 -60 29 -93 15z"/>
<path d="M2222 720 c-77 -55 -80 -91 -16 -160 62 -67 86 -67 148 0 67 72 62
118 -18 165 -54 32 -64 31 -114 -5z"/>
<path d="M1497 713 c-29 -35 -107 -113 -135 -135 -28 -23 -28 -63 0 -86 66
-53 100 -89 120 -123 36 -64 51 -61 132 23 39 40 83 83 99 96 45 36 37 64 -38
123 -36 28 -65 54 -65 59 0 15 -58 70 -75 70 -9 0 -26 -12 -38 -27z"/>
</g>
</svg>
