<svg version="1.0" xmlns="http://www.w3.org/2000/svg"
     width="76.000000pt" height="58.000000pt" viewBox="0 0 76.000000 58.000000"
     preserveAspectRatio="xMidYMid meet">
    <g transform="translate(0.000000,58.000000) scale(0.100000,-0.100000)"
       fill="#ffffff" stroke="none">
        <path d="M190 451 c0 -4 28 -14 63 -21 169 -33 397 -174 397 -245 0 -16 -9
            -17 -83 -13 -125 8 -198 53 -155 96 6 6 10 13 7 16 -7 7 -169 -20 -179 -30 -7
            -7 6 -36 37 -83 42 -67 48 -72 60 -55 12 17 15 17 75 -4 86 -30 173 -30 219 1
            45 30 64 66 55 103 -18 72 -184 179 -346 224 -77 21 -150 26 -150 11z"/>
    </g>
</svg>
