 <svg  version="1.0" xmlns="http://www.w3.org/2000/svg"  width="300.000000pt" height="285.000000pt" viewBox="0 0 300.000000 285.000000"  preserveAspectRatio="xMidYMid meet">  <g transform="translate(0.000000,285.000000) scale(0.100000,-0.100000)" fill="#ffffff" stroke="none"> <path d="M1438 2563 c-140 -114 -374 -284 -427 -312 -12 -7 -80 -54 -150 -105 -69 -51 -217 -155 -328 -230 -199 -135 -203 -138 -203 -172 0 -26 10 -47 39 -82 45 -53 218 -272 303 -383 31 -41 108 -140 170 -221 287 -371 388 -504 538 -705 25 -33 57 -81 72 -107 25 -41 31 -46 63 -46 31 0 40 6 68 47 17 25 51 71 75 102 75 99 305 399 382 500 41 54 109 142 151 197 41 55 102 133 135 174 105 130 193 243 266 340 39 52 84 110 100 128 20 23 28 43 26 60 -3 28 5 22 -298 230 -196 134 -240 165 -403 283 -87 63 -190 137 -230 164 -40 28 -110 78 -155 113 -102 76 -126 79 -194 25z m140 -140 c22 -16 103 -75 179 -133 76 -58 165 -123 197 -145 91 -62 156 -124 156 -149 0 -13 -28 -58 -65 -104 -54 -67 -72 -82 -102 -88 -64 -12 -93 25 -93 122 0 73 -7 83 -105 150 -38 26 -89 64 -111 85 -55 49 -100 72 -130 65 -12 -3 -44 -24 -69 -46 -25 -22 -91 -70 -146 -107 -67 -46 -102 -76 -106 -92 -8 -32 22 -87 92 -171 30 -36 76 -96 102 -135 59 -85 124 -155 146 -155 9 0 40 11 69 24 29 14 66 28 81 31 35 9 34 26 -4 70 -44 50 -102 80 -190 99 -89 19 -113 40 -112 92 2 64 112 153 174 140 16 -3 67 -39 115 -80 47 -40 109 -86 137 -101 29 -15 70 -44 92 -65 40 -37 209 -158 276 -198 50 -30 61 -46 61 -86 0 -35 -43 -102 -194 -305 -35 -47 -81 -112 -104 -145 -69 -104 -242 -357 -301 -443 -87 -124 -125 -129 -186 -26 -18 32 -56 88 -83 125 -27 37 -75 105 -107 150 -32 46 -101 144 -153 218 -52 74 -114 164 -138 200 -24 36 -66 94 -95 129 -77 95 -71 126 34 195 22 14 62 42 89 61 31 22 60 35 80 35 97 0 113 -113 26 -187 -51 -44 -51 -66 3 -140 146 -197 206 -281 293 -411 116 -173 129 -176 231 -46 120 154 353 493 359 522 7 34 -2 45 -80 102 -27 19 -62 45 -79 58 -16 12 -43 22 -58 22 -28 0 -29 -1 -29 -52 0 -46 -6 -63 -46 -123 -25 -38 -56 -91 -69 -117 -43 -83 -105 -111 -146 -65 -23 25 -152 220 -191 288 -15 25 -46 68 -70 95 -24 27 -70 89 -102 138 -32 48 -85 121 -117 160 -32 40 -61 84 -64 97 -8 33 20 69 93 118 137 91 259 182 375 278 100 83 120 88 185 46z"/> </g> </svg> 