 <svg  version="1.0" xmlns="http://www.w3.org/2000/svg"  width="300.000000pt" height="372.000000pt" viewBox="0 0 300.000000 372.000000"  preserveAspectRatio="xMidYMid meet">  <g transform="translate(0.000000,372.000000) scale(0.100000,-0.100000)" fill="#ffffff" stroke="none"> <path d="M1790 3413 c-55 -21 -130 -111 -130 -154 0 -34 21 -52 98 -83 80 -32 142 -76 265 -190 172 -158 266 -317 326 -550 27 -103 31 -135 31 -250 -1 -179 -13 -258 -53 -352 -19 -43 -40 -97 -47 -119 -20 -62 -126 -213 -199 -283 -116 -110 -233 -180 -393 -232 -124 -41 -321 -55 -509 -35 -109 11 -139 18 -209 50 -96 43 -153 44 -197 4 -42 -40 -53 -74 -65 -209 -11 -123 -10 -131 8 -151 15 -17 27 -20 61 -16 34 3 54 15 99 56 64 58 91 64 172 32 26 -11 70 -22 98 -26 131 -18 147 -37 106 -128 -63 -138 -117 -170 -312 -182 -119 -7 -350 -49 -392 -71 -32 -17 -45 -55 -30 -88 15 -32 64 -53 162 -66 47 -6 121 -18 165 -25 44 -8 154 -22 245 -31 249 -25 425 -15 828 45 74 11 166 51 181 78 14 27 4 59 -24 77 -54 36 -262 78 -449 91 -57 4 -103 13 -126 25 -82 42 -180 189 -150 225 18 21 107 52 175 59 118 13 196 38 333 108 175 90 207 114 344 257 151 158 219 276 290 499 65 206 77 317 55 487 -30 227 -122 451 -259 630 -55 72 -173 186 -248 242 -89 65 -116 102 -125 168 -9 76 -12 83 -46 100 -29 15 -53 18 -79 8z"/> <path d="M1110 3035 c-180 -48 -347 -146 -503 -296 -81 -78 -97 -99 -97 -124 0 -48 24 -71 102 -101 40 -15 112 -46 160 -70 48 -24 126 -60 175 -80 48 -20 102 -44 118 -54 17 -10 64 -30 105 -44 41 -15 79 -31 85 -35 22 -18 321 -147 505 -218 107 -41 222 -90 256 -109 77 -43 122 -45 164 -6 28 25 32 35 41 122 19 163 9 277 -35 413 -64 197 -179 348 -360 470 -169 114 -272 146 -481 153 -126 4 -149 2 -235 -21z"/> <path d="M425 2377 c-23 -36 -35 -119 -35 -251 0 -173 20 -286 64 -375 125 -246 225 -330 500 -416 98 -30 142 -38 260 -47 345 -24 585 48 778 232 69 66 78 79 78 110 0 20 -7 46 -16 58 -16 23 -83 62 -106 62 -7 0 -85 34 -173 76 -88 42 -185 85 -215 96 -82 30 -365 152 -495 214 -38 18 -140 62 -225 98 -85 35 -204 87 -263 115 -59 28 -114 51 -122 51 -8 0 -21 -10 -30 -23z"/> </g> </svg> 