 <svg  version="1.0" xmlns="http://www.w3.org/2000/svg"  width="300.000000pt" height="339.000000pt" viewBox="0 0 300.000000 339.000000"  preserveAspectRatio="xMidYMid meet">  <g transform="translate(0.000000,339.000000) scale(0.100000,-0.100000)" fill="#ffffff" stroke="none"> <path d="M1325 3148 c-55 -4 -118 -15 -140 -23 -22 -8 -80 -26 -128 -40 -162 -47 -250 -106 -408 -276 -156 -167 -193 -253 -225 -520 -20 -170 -16 -209 27 -241 17 -13 47 -38 66 -56 33 -30 35 -36 30 -75 -40 -293 -46 -373 -37 -461 16 -150 13 -208 -15 -282 -14 -36 -25 -79 -25 -96 0 -68 92 -197 155 -218 26 -9 43 -6 96 13 50 19 95 26 204 32 175 10 180 10 215 -5 61 -25 67 -156 12 -252 -38 -66 -82 -196 -82 -241 0 -48 31 -83 104 -116 33 -15 67 -35 75 -44 23 -29 109 -47 236 -49 140 -2 183 11 324 96 116 70 161 114 161 158 0 52 -45 132 -107 188 -41 37 -59 63 -69 97 -20 67 -18 89 15 125 l29 33 187 3 186 3 66 -30 c80 -38 121 -39 161 -6 54 45 67 87 67 215 1 63 5 147 9 186 8 62 5 82 -19 165 -15 52 -50 143 -77 202 -28 59 -52 125 -55 146 -8 58 13 106 62 147 71 57 80 95 80 314 -1 307 -36 388 -289 661 -81 88 -219 174 -325 205 -25 7 -71 22 -101 33 -47 17 -78 20 -210 19 -85 0 -200 -5 -255 -10z m-135 -1548 c77 -26 184 -99 205 -140 19 -38 19 -113 -1 -155 -8 -18 -36 -47 -62 -66 -26 -18 -72 -54 -102 -79 -30 -26 -71 -55 -90 -65 -48 -25 -289 -48 -345 -34 -89 24 -133 118 -142 304 -6 123 5 180 41 222 23 26 31 28 128 34 177 11 295 4 368 -21z m1037 5 c154 -77 230 -227 178 -352 -26 -61 -100 -139 -163 -170 -53 -26 -66 -28 -177 -28 -104 0 -127 3 -170 23 -58 27 -110 74 -171 156 -35 46 -44 67 -44 98 0 51 55 182 86 207 30 24 158 67 234 80 107 17 172 13 227 -14z m-624 -522 c35 -54 67 -103 71 -110 9 -16 -22 -263 -35 -279 -5 -6 -30 -17 -56 -23 -26 -7 -65 -23 -88 -37 -59 -34 -106 -32 -139 7 -34 40 -39 63 -34 161 3 75 9 96 61 212 32 72 65 138 74 148 9 10 30 18 49 18 31 0 37 -7 97 -97z"/> </g> </svg> 