<?xml version="1.0" standalone="no"?>
<!DOCTYPE svg PUBLIC "-//W3C//DTD SVG 20010904//EN"
 "http://www.w3.org/TR/2001/REC-SVG-20010904/DTD/svg10.dtd">
<svg version="1.0" xmlns="http://www.w3.org/2000/svg"
 width="300.000000pt" height="249.000000pt" viewBox="0 0 300.000000 249.000000"
 preserveAspectRatio="xMidYMid meet">
<metadata>
Created by potrace 1.10, written by Peter Selinger 2001-2011
</metadata>
<g transform="translate(0.000000,249.000000) scale(0.100000,-0.100000)"
fill="#ffffff" stroke="none">
<path d="M1411 2124 c-11 -14 -23 -46 -26 -72 -18 -135 -71 -330 -99 -360 -33
-37 -107 -27 -226 29 l-95 44 -140 -3 c-193 -5 -399 14 -507 45 -47 14 -94 23
-102 20 -10 -4 -16 -18 -16 -36 0 -23 15 -47 65 -102 52 -59 66 -81 75 -124 8
-39 21 -63 55 -98 24 -26 50 -65 56 -87 10 -34 29 -53 108 -115 53 -42 113
-89 135 -107 21 -17 57 -35 80 -39 55 -11 329 -10 386 1 32 6 54 4 78 -5 63
-27 92 -156 57 -255 -18 -50 -88 -151 -140 -200 -42 -40 -69 -86 -61 -105 2
-7 31 -31 63 -53 74 -51 95 -74 128 -143 42 -90 87 -101 235 -55 66 20 93 34
119 61 18 20 51 45 72 56 47 23 119 112 119 145 0 16 -23 48 -68 96 -115 124
-192 240 -192 290 0 13 19 55 43 93 l43 70 255 0 c210 0 259 3 276 15 232 164
267 196 288 260 10 30 28 59 46 73 29 22 58 82 59 120 0 11 29 49 64 86 77 79
93 113 71 147 -20 31 -28 30 -118 -6 -96 -38 -258 -55 -455 -47 l-144 6 -130
-50 c-101 -39 -140 -49 -175 -47 -61 4 -77 27 -107 153 -41 173 -76 298 -87
312 -19 22 -65 16 -88 -13z"/>
</g>
</svg>
