 <svg  version="1.0" xmlns="http://www.w3.org/2000/svg"  width="99.000000pt" height="105.000000pt" viewBox="0 0 99.000000 105.000000"  preserveAspectRatio="xMidYMid meet">  <g transform="translate(0.000000,105.000000) scale(0.100000,-0.100000)" fill="#ffffff" stroke="none"> <path d="M445 956 c-27 -7 -59 -17 -70 -23 -11 -7 -27 -14 -36 -16 -23 -7 -109 -123 -109 -146 0 -12 15 -29 38 -42 20 -13 48 -34 62 -47 14 -13 51 -37 83 -53 32 -16 75 -45 96 -64 l38 -35 19 23 c27 31 54 82 54 102 0 10 11 38 25 64 52 97 74 183 54 207 -35 42 -149 56 -254 30z"/> <path d="M732 788 c-7 -7 -12 -17 -12 -22 0 -6 -6 -23 -14 -37 -7 -14 -16 -39 -20 -55 -4 -16 -13 -42 -20 -59 -33 -72 -46 -107 -46 -119 0 -19 60 -146 69 -146 4 0 30 7 57 15 27 8 61 15 76 15 15 0 30 5 34 11 11 19 5 124 -11 176 -8 26 -15 59 -15 73 0 30 -61 160 -75 160 -6 0 -16 -5 -23 -12z"/> <path d="M147 683 c-14 -13 -6 -254 13 -403 11 -85 20 -158 20 -162 0 -4 7 -14 16 -23 20 -19 96 -19 249 2 61 9 126 17 145 18 19 1 38 3 41 4 17 3 17 40 -1 141 -28 162 -64 216 -190 284 -19 10 -48 29 -65 41 -16 12 -52 32 -80 44 -27 12 -69 31 -93 42 -48 22 -46 21 -55 12z"/> </g> </svg> 