 <svg  version="1.0" xmlns="http://www.w3.org/2000/svg"  width="84.000000pt" height="108.000000pt" viewBox="0 0 84.000000 108.000000"  preserveAspectRatio="xMidYMid meet">  <g transform="translate(0.000000,108.000000) scale(0.100000,-0.100000)" fill="#ffffff" stroke="none"> <path d="M260 960 c-70 -26 -119 -66 -147 -121 -26 -52 -29 -93 -8 -140 33 -75 87 -109 172 -109 78 0 104 22 122 103 7 32 10 61 7 64 -3 4 -31 -2 -61 -12 -54 -19 -55 -19 -82 1 -21 16 -29 31 -31 61 -3 35 1 44 31 70 61 54 170 53 235 -2 30 -25 62 -105 62 -154 0 -37 -32 -78 -123 -156 -82 -71 -107 -106 -107 -153 0 -42 28 -62 87 -62 40 0 54 5 73 25 l23 25 -35 0 c-45 0 -67 22 -47 48 22 28 39 39 134 93 141 80 175 120 175 206 0 91 -66 176 -163 209 -81 27 -247 30 -317 4z"/> <path d="M362 260 c-23 -22 -37 -77 -28 -113 8 -33 43 -67 71 -67 61 0 92 131 42 178 -29 27 -57 28 -85 2z"/> </g> </svg> 